<?xml version="1.0" standalone="no"?>
<!DOCTYPE svg PUBLIC "-//W3C//DTD SVG 20010904//EN"
 "http://www.w3.org/TR/2001/REC-SVG-20010904/DTD/svg10.dtd">
<svg version="1.0" xmlns="http://www.w3.org/2000/svg"
 width="1182.000000pt" height="1010.000000pt" viewBox="0 0 1182.000000 1010.000000"
 preserveAspectRatio="xMidYMid meet">

<g transform="translate(0.000000,1010.000000) scale(0.100000,-0.100000)"
fill="#000000" stroke="none">
<path d="M10150 9955 c0 -12 -17 -15 -95 -15 -88 0 -95 -1 -95 -20 0 -18 -7
-20 -65 -20 -51 0 -65 -3 -65 -15 0 -10 -11 -15 -35 -15 -24 0 -35 -5 -35 -15
0 -11 -12 -15 -45 -15 -33 0 -45 -4 -45 -15 0 -10 -11 -15 -35 -15 -28 0 -35
-4 -35 -20 0 -11 7 -20 15 -20 10 0 15 -10 15 -30 0 -20 -5 -30 -15 -30 -10 0
-15 10 -15 30 0 20 -5 30 -15 30 -8 0 -15 -7 -15 -15 0 -10 -11 -15 -35 -15
-24 0 -35 -5 -35 -15 0 -8 -7 -15 -15 -15 -8 0 -15 -7 -15 -15 0 -8 7 -15 15
-15 8 0 15 -9 15 -20 0 -11 -7 -20 -15 -20 -8 0 -15 9 -15 20 0 16 -7 20 -30
20 -23 0 -30 -4 -30 -20 0 -13 -7 -20 -20 -20 -11 0 -20 -7 -20 -15 0 -8 -7
-15 -15 -15 -8 0 -15 -7 -15 -15 0 -8 -7 -15 -15 -15 -8 0 -15 -7 -15 -15 0
-8 -7 -15 -15 -15 -8 0 -15 -9 -15 -20 0 -13 -7 -20 -20 -20 -11 0 -20 -7 -20
-15 0 -8 -7 -15 -15 -15 -8 0 -15 -7 -15 -15 0 -8 -7 -15 -15 -15 -8 0 -15 -7
-15 -15 0 -8 -7 -15 -15 -15 -12 0 -15 -14 -15 -65 0 -58 -2 -65 -20 -65 -11
0 -20 7 -20 15 0 8 -7 15 -15 15 -8 0 -15 -7 -15 -15 0 -8 -7 -15 -15 -15 -8
0 -15 -9 -15 -20 0 -11 7 -20 15 -20 10 0 15 -10 15 -30 0 -20 -5 -30 -15 -30
-8 0 -15 7 -15 15 0 8 -7 15 -15 15 -11 0 -15 -12 -15 -50 0 -38 4 -50 15 -50
8 0 15 -7 15 -15 0 -8 -7 -15 -15 -15 -12 0 -15 -14 -15 -65 0 -51 3 -65 15
-65 12 0 15 -14 15 -65 0 -51 3 -65 15 -65 11 0 15 -12 15 -50 0 -38 4 -50 15
-50 12 0 15 -16 15 -80 0 -73 2 -80 20 -80 19 0 20 -7 20 -115 0 -96 3 -115
15 -115 13 0 15 -23 15 -145 0 -122 2 -145 15 -145 12 0 15 -16 15 -80 0 -64
3 -80 15 -80 13 0 15 -23 15 -145 0 -138 1 -145 20 -145 16 0 20 -7 20 -35 0
-28 -4 -35 -20 -35 -19 0 -20 -7 -20 -260 0 -253 1 -260 20 -260 19 0 20 -7
20 -115 0 -108 -1 -115 -20 -115 -20 0 -20 -7 -20 -275 0 -238 -2 -275 -15
-275 -13 0 -15 -21 -15 -130 0 -109 -2 -130 -15 -130 -12 0 -15 -16 -15 -80 0
-64 -3 -80 -15 -80 -13 0 -15 -23 -15 -150 0 -143 -1 -150 -20 -150 -16 0 -20
-7 -20 -30 0 -20 -5 -30 -15 -30 -8 0 -15 -7 -15 -15 0 -8 7 -15 15 -15 10 0
15 -11 15 -35 0 -24 -5 -35 -15 -35 -10 0 -15 -10 -15 -30 0 -20 -5 -30 -15
-30 -11 0 -15 -12 -15 -50 0 -38 -4 -50 -15 -50 -8 0 -15 -7 -15 -15 0 -8 7
-15 15 -15 10 0 15 -11 15 -35 0 -24 -5 -35 -15 -35 -8 0 -15 -7 -15 -15 0 -8
-9 -15 -20 -15 -16 0 -20 -7 -20 -35 0 -24 -5 -35 -15 -35 -10 0 -15 -10 -15
-30 0 -20 -5 -30 -15 -30 -8 0 -15 -7 -15 -15 0 -8 -7 -15 -15 -15 -10 0 -15
-11 -15 -35 0 -33 -2 -35 -35 -35 -24 0 -35 -5 -35 -15 0 -8 -7 -15 -15 -15
-8 0 -15 -7 -15 -15 0 -10 -11 -15 -35 -15 -33 0 -35 -2 -35 -35 0 -33 2 -35
35 -35 24 0 35 5 35 15 0 8 7 15 15 15 10 0 15 -10 15 -30 0 -20 -5 -30 -15
-30 -11 0 -15 -12 -15 -50 0 -38 -4 -50 -15 -50 -11 0 -15 -12 -15 -50 l0 -50
-100 0 c-82 0 -100 -3 -100 -15 0 -8 -7 -15 -15 -15 -11 0 -15 -12 -15 -50 0
-49 1 -50 30 -50 28 0 30 3 30 35 l0 35 50 0 50 0 0 -35 c0 -24 -5 -35 -15
-35 -10 0 -15 -10 -15 -30 0 -20 -5 -30 -15 -30 -8 0 -15 -7 -15 -15 0 -8 -9
-15 -20 -15 -16 0 -20 -7 -20 -35 0 -24 -5 -35 -15 -35 -8 0 -15 -7 -15 -15 0
-10 -10 -15 -30 -15 -20 0 -30 -5 -30 -15 0 -13 -36 -15 -260 -15 -253 0 -260
-1 -260 -20 0 -19 7 -20 260 -20 253 0 260 1 260 20 0 11 7 20 15 20 10 0 15
-11 15 -35 0 -24 -5 -35 -15 -35 -8 0 -15 -7 -15 -15 0 -13 48 -15 370 -15
322 0 370 2 370 15 0 10 11 15 35 15 24 0 35 5 35 15 0 8 7 15 15 15 8 0 15 9
15 20 0 11 7 20 15 20 8 0 15 7 15 15 0 10 11 15 35 15 24 0 35 5 35 15 0 8 7
15 15 15 8 0 15 7 15 15 0 8 7 15 15 15 10 0 15 11 15 35 0 28 4 35 20 35 11
0 20 7 20 15 0 8 7 15 15 15 8 0 15 7 15 15 0 8 7 15 15 15 10 0 15 11 15 35
0 24 5 35 15 35 8 0 15 7 15 15 0 8 9 15 20 15 16 0 20 7 20 35 0 24 5 35 15
35 10 0 15 10 15 30 0 20 5 30 15 30 10 0 15 11 15 35 0 24 5 35 15 35 11 0
15 12 15 45 0 38 3 45 20 45 17 0 20 7 20 50 0 38 4 50 15 50 11 0 15 12 15
50 0 38 4 50 15 50 11 0 15 12 15 50 0 38 4 50 15 50 11 0 15 12 15 45 0 38 3
45 20 45 18 0 20 7 20 85 0 69 3 85 15 85 12 0 15 14 15 65 0 51 3 65 15 65
12 0 15 16 15 80 0 64 3 80 15 80 8 0 15 7 15 15 0 8 -7 15 -15 15 -8 0 -15 7
-15 15 0 8 7 15 15 15 12 0 15 16 15 85 0 78 2 85 20 85 18 0 20 7 20 80 0 64
3 80 15 80 12 0 15 16 15 80 0 64 3 80 15 80 12 0 15 16 15 80 0 64 3 80 15
80 12 0 15 19 15 115 0 108 1 115 20 115 18 0 20 7 20 65 0 58 -2 65 -20 65
-11 0 -20 -7 -20 -15 0 -8 -7 -15 -15 -15 -8 0 -15 7 -15 15 0 8 7 15 15 15
11 0 15 12 15 50 0 38 -4 50 -15 50 -12 0 -15 14 -15 65 0 51 3 65 15 65 12 0
15 -14 15 -65 0 -58 2 -65 20 -65 16 0 20 -7 20 -35 0 -24 5 -35 15 -35 12 0
15 18 15 100 0 82 3 100 15 100 8 0 15 7 15 15 0 8 -7 15 -15 15 -11 0 -15 12
-15 50 0 38 4 50 15 50 10 0 15 11 15 35 0 24 5 35 15 35 11 0 15 12 15 45 0
33 -4 45 -15 45 -8 0 -15 -7 -15 -15 0 -8 -7 -15 -15 -15 -10 0 -15 -10 -15
-30 0 -20 -5 -30 -15 -30 -8 0 -15 -9 -15 -20 0 -13 -7 -20 -20 -20 -16 0 -20
7 -20 35 0 28 4 35 20 35 11 0 20 7 20 15 0 8 7 15 15 15 11 0 15 12 15 50 l0
50 50 0 50 0 0 80 c0 64 3 80 15 80 12 0 15 16 15 80 0 64 3 80 15 80 12 0 15
18 15 100 0 82 -3 100 -15 100 -8 0 -15 7 -15 15 0 8 7 15 15 15 8 0 15 -7 15
-15 0 -8 7 -15 15 -15 12 0 15 17 15 95 0 78 -3 95 -15 95 -12 0 -15 16 -15
85 0 69 3 85 15 85 12 0 15 -16 15 -85 0 -78 2 -85 20 -85 19 0 20 7 20 100 0
82 3 100 15 100 12 0 15 16 15 80 0 64 3 80 15 80 12 0 15 14 15 65 0 51 3 65
15 65 12 0 15 16 15 80 0 73 2 80 20 80 17 0 20 7 20 50 0 38 4 50 15 50 12 0
15 16 15 80 0 64 3 80 15 80 11 0 15 12 15 50 0 38 -4 50 -15 50 -8 0 -15 7
-15 15 0 8 7 15 15 15 8 0 15 -7 15 -15 0 -8 7 -15 15 -15 11 0 15 12 15 50 0
38 -4 50 -15 50 -8 0 -15 7 -15 15 0 10 11 15 35 15 33 0 35 2 35 35 0 28 -4
35 -20 35 -16 0 -20 7 -20 30 0 23 4 30 20 30 11 0 20 -7 20 -15 0 -8 7 -15
15 -15 11 0 15 12 15 50 0 38 4 50 15 50 10 0 15 10 15 30 0 20 5 30 15 30 11
0 15 12 15 50 0 43 3 50 20 50 17 0 20 7 20 50 0 38 4 50 15 50 8 0 15 7 15
15 0 8 -7 15 -15 15 -8 0 -15 7 -15 15 0 8 7 15 15 15 8 0 15 7 15 15 0 8 7
15 15 15 8 0 15 9 15 20 0 11 7 20 15 20 10 0 15 10 15 30 0 23 4 30 20 30 11
0 20 7 20 15 0 8 -9 15 -20 15 -13 0 -20 7 -20 20 0 16 7 20 35 20 24 0 35 5
35 15 0 8 -7 15 -15 15 -8 0 -15 7 -15 15 0 8 -9 15 -20 15 -11 0 -20 -7 -20
-15 0 -8 -7 -15 -15 -15 -8 0 -15 7 -15 15 0 8 -7 15 -15 15 -8 0 -15 7 -15
15 0 12 -16 15 -80 15 -73 0 -80 2 -80 20 0 18 -7 20 -65 20 -58 0 -65 -2 -65
-20 0 -13 -7 -20 -20 -20 -16 0 -20 7 -20 35 l0 35 -195 0 c-167 0 -195 -2
-195 -15z m720 -230 c0 -8 -7 -15 -15 -15 -8 0 -15 7 -15 15 0 8 7 15 15 15 8
0 15 -7 15 -15z m-1300 -65 c0 -16 7 -20 30 -20 20 0 30 -5 30 -15 0 -10 -10
-15 -30 -15 -20 0 -30 5 -30 15 0 8 -7 15 -15 15 -8 0 -15 9 -15 20 0 11 7 20
15 20 8 0 15 -9 15 -20z m-360 -260 c0 -11 -7 -20 -15 -20 -8 0 -15 9 -15 20
0 11 7 20 15 20 8 0 15 -9 15 -20z m30 -65 c0 -8 -7 -15 -15 -15 -8 0 -15 7
-15 15 0 8 7 15 15 15 8 0 15 -7 15 -15z m1470 0 c0 -8 -9 -15 -20 -15 -11 0
-20 7 -20 15 0 8 9 15 20 15 11 0 20 -7 20 -15z m-1500 -130 c0 -8 -7 -15 -15
-15 -8 0 -15 7 -15 15 0 8 7 15 15 15 8 0 15 -7 15 -15z m1200 -830 c0 -51 -3
-65 -15 -65 -12 0 -15 14 -15 65 0 51 3 65 15 65 12 0 15 -14 15 -65z m-30
-175 c0 -38 -4 -50 -15 -50 -11 0 -15 12 -15 50 0 38 4 50 15 50 11 0 15 -12
15 -50z m70 0 c0 -43 -3 -50 -20 -50 -17 0 -20 7 -20 50 0 43 3 50 20 50 17 0
20 -7 20 -50z m-300 -945 c0 -8 -7 -15 -15 -15 -8 0 -15 7 -15 15 0 8 7 15 15
15 8 0 15 -7 15 -15z m40 -260 c0 -8 -9 -15 -20 -15 -11 0 -20 7 -20 15 0 8 9
15 20 15 11 0 20 -7 20 -15z m-100 -210 c0 -24 -5 -35 -15 -35 -10 0 -15 11
-15 35 0 24 5 35 15 35 10 0 15 -11 15 -35z m30 -280 c0 -8 -7 -15 -15 -15 -8
0 -15 7 -15 15 0 8 7 15 15 15 8 0 15 -7 15 -15z m-60 -30 c0 -8 -9 -15 -20
-15 -11 0 -20 7 -20 15 0 8 9 15 20 15 11 0 20 -7 20 -15z m-230 -230 c0 -8
-7 -15 -15 -15 -8 0 -15 7 -15 15 0 8 7 15 15 15 8 0 15 -7 15 -15z m100 -30
c0 -8 -9 -15 -20 -15 -13 0 -20 -7 -20 -20 0 -11 -7 -20 -15 -20 -10 0 -15 11
-15 35 0 33 2 35 35 35 24 0 35 -5 35 -15z m-650 -280 c0 -28 -4 -35 -20 -35
-16 0 -20 7 -20 35 0 28 4 35 20 35 16 0 20 -7 20 -35z m450 -65 c0 -20 -5
-30 -15 -30 -8 0 -15 -7 -15 -15 0 -8 -7 -15 -15 -15 -8 0 -15 7 -15 15 0 8
-9 15 -20 15 -16 0 -20 7 -20 30 0 29 1 30 50 30 49 0 50 -1 50 -30z m-160
-80 c0 -38 -4 -50 -15 -50 -11 0 -15 12 -15 50 0 38 4 50 15 50 11 0 15 -12
15 -50z m-360 0 c0 -11 7 -20 15 -20 10 0 15 -10 15 -30 l0 -30 65 0 65 0 0
-35 c0 -35 0 -35 -45 -35 -33 0 -45 -4 -45 -15 0 -8 -9 -15 -20 -15 -17 0 -20
7 -20 50 0 38 -4 50 -15 50 -10 0 -15 10 -15 30 0 20 -5 30 -15 30 -8 0 -15 9
-15 20 0 11 7 20 15 20 8 0 15 -9 15 -20z m390 -95 c0 -8 -7 -15 -15 -15 -8 0
-15 -9 -15 -20 0 -11 -7 -20 -15 -20 -10 0 -15 11 -15 35 0 32 2 35 30 35 20
0 30 -5 30 -15z m-130 -135 c0 -49 -1 -50 -30 -50 -29 0 -30 1 -30 50 0 49 1
50 30 50 29 0 30 -1 30 -50z m-160 -95 c0 -8 -7 -15 -15 -15 -8 0 -15 7 -15
15 0 8 7 15 15 15 8 0 15 -7 15 -15z m60 -50 c0 -24 -5 -35 -15 -35 -10 0 -15
11 -15 35 0 24 5 35 15 35 10 0 15 -11 15 -35z m-90 -15 c0 -13 -7 -20 -20
-20 -13 0 -20 7 -20 20 0 13 7 20 20 20 13 0 20 -7 20 -20z m-100 -100 c0 -38
-4 -50 -15 -50 -11 0 -15 12 -15 50 0 38 4 50 15 50 11 0 15 -12 15 -50z m130
35 c0 -8 -7 -15 -15 -15 -8 0 -15 7 -15 15 0 8 7 15 15 15 8 0 15 -7 15 -15z
m-200 -160 c0 -10 -10 -15 -30 -15 -20 0 -30 5 -30 15 0 10 10 15 30 15 20 0
30 -5 30 -15z m200 -1075 c0 -11 -7 -20 -15 -20 -8 0 -15 9 -15 20 0 11 7 20
15 20 8 0 15 -9 15 -20z"/>
<path d="M6800 9660 c0 -16 7 -20 35 -20 28 0 35 4 35 20 0 16 -7 20 -35 20
-28 0 -35 -4 -35 -20z"/>
<path d="M7000 9595 c0 -8 7 -15 15 -15 8 0 15 7 15 15 0 8 -7 15 -15 15 -8 0
-15 -7 -15 -15z"/>
<path d="M7060 9530 c0 -13 7 -20 20 -20 11 0 20 -7 20 -15 0 -8 7 -15 15 -15
8 0 15 7 15 15 0 8 -7 15 -15 15 -8 0 -15 9 -15 20 0 13 -7 20 -20 20 -13 0
-20 -7 -20 -20z"/>
<path d="M4850 9495 c0 -11 -12 -15 -45 -15 -33 0 -45 -4 -45 -15 0 -8 -9 -15
-20 -15 -11 0 -20 -7 -20 -15 0 -10 -10 -15 -30 -15 -23 0 -30 -4 -30 -20 0
-11 -7 -20 -15 -20 -8 0 -15 -7 -15 -15 0 -8 -9 -15 -20 -15 -11 0 -20 -7 -20
-15 0 -8 -7 -15 -15 -15 -8 0 -15 -7 -15 -15 0 -8 -7 -15 -15 -15 -8 0 -15 -9
-15 -20 0 -11 -7 -20 -15 -20 -8 0 -15 -7 -15 -15 0 -8 -9 -15 -20 -15 -11 0
-20 -7 -20 -15 0 -8 -7 -15 -15 -15 -10 0 -15 -11 -15 -35 0 -24 -5 -35 -15
-35 -8 0 -15 -7 -15 -15 0 -8 -9 -15 -20 -15 -16 0 -20 -7 -20 -30 0 -20 -5
-30 -15 -30 -10 0 -15 -11 -15 -35 0 -24 -5 -35 -15 -35 -10 0 -15 -10 -15
-30 0 -20 -5 -30 -15 -30 -8 0 -15 -9 -15 -20 0 -13 -7 -20 -20 -20 -18 0 -20
-7 -20 -65 0 -51 -3 -65 -15 -65 -10 0 -15 -10 -15 -30 0 -20 5 -30 15 -30 10
0 15 10 15 30 0 23 4 30 20 30 11 0 20 -7 20 -15 0 -8 7 -15 15 -15 8 0 15 7
15 15 0 10 10 15 30 15 23 0 30 4 30 20 0 13 7 20 20 20 11 0 20 7 20 15 0 8
7 15 15 15 8 0 15 -7 15 -15 0 -11 12 -15 50 -15 38 0 50 4 50 15 0 8 7 15 15
15 8 0 15 7 15 15 0 12 16 15 80 15 64 0 80 -3 80 -15 0 -12 14 -15 65 -15 51
0 65 -3 65 -15 0 -10 11 -15 35 -15 28 0 35 -4 35 -20 0 -11 7 -20 15 -20 8 0
15 -7 15 -15 0 -8 7 -15 15 -15 8 0 15 -7 15 -15 0 -8 9 -15 20 -15 11 0 20
-7 20 -15 0 -8 7 -15 15 -15 10 0 15 -11 15 -35 0 -32 2 -35 30 -35 27 0 30
-3 30 -30 0 -23 4 -30 20 -30 16 0 20 -7 20 -35 0 -24 5 -35 15 -35 10 0 15
-10 15 -30 0 -20 5 -30 15 -30 8 0 15 -9 15 -20 0 -11 7 -20 15 -20 11 0 15
-12 15 -45 0 -38 3 -45 20 -45 16 0 20 -7 20 -35 0 -24 5 -35 15 -35 12 0 15
-14 15 -65 0 -51 3 -65 15 -65 11 0 15 -12 15 -50 0 -38 4 -50 15 -50 12 0 15
-16 15 -80 0 -73 2 -80 20 -80 17 0 20 -7 20 -50 0 -38 4 -50 15 -50 12 0 15
-16 15 -80 0 -64 3 -80 15 -80 12 0 15 -17 15 -95 0 -78 3 -95 15 -95 13 0 15
-27 15 -180 0 -173 1 -180 20 -180 19 0 20 -7 20 -215 0 -208 -1 -215 -20
-215 -16 0 -20 -7 -20 -30 0 -20 -5 -30 -15 -30 -12 0 -15 -16 -15 -80 0 -64
-3 -80 -15 -80 -8 0 -15 7 -15 15 0 8 -7 15 -15 15 -11 0 -15 -12 -15 -50 0
-43 -3 -50 -20 -50 -16 0 -20 -7 -20 -30 0 -20 -5 -30 -15 -30 -10 0 -15 -11
-15 -35 0 -24 -5 -35 -15 -35 -10 0 -15 -10 -15 -30 0 -20 -5 -30 -15 -30 -11
0 -15 -12 -15 -50 0 -38 4 -50 15 -50 10 0 15 10 15 30 0 20 5 30 15 30 8 0
15 9 15 20 0 11 7 20 15 20 10 0 15 -11 15 -35 0 -28 4 -35 20 -35 18 0 20 7
20 80 0 73 -2 80 -20 80 -13 0 -20 7 -20 20 0 16 7 20 35 20 l35 0 0 -115 c0
-96 3 -115 15 -115 12 0 15 17 15 95 0 78 3 95 15 95 12 0 15 16 15 85 0 78 2
85 20 85 19 0 20 7 20 95 0 78 3 95 15 95 12 0 15 16 15 80 0 64 3 80 15 80
12 0 15 18 15 100 0 82 3 100 15 100 12 0 15 16 15 80 0 73 2 80 20 80 18 0
20 7 20 85 0 69 3 85 15 85 12 0 15 16 15 80 0 64 3 80 15 80 12 0 15 17 15
95 0 78 3 95 15 95 12 0 15 16 15 85 0 78 2 85 20 85 19 0 20 7 20 95 0 78 3
95 15 95 10 0 15 11 15 35 0 24 5 35 15 35 8 0 15 7 15 15 0 8 -7 15 -15 15
-12 0 -15 16 -15 80 0 64 -3 80 -15 80 -12 0 -15 18 -15 100 0 93 -1 100 -20
100 -18 0 -20 7 -20 65 0 51 -3 65 -15 65 -11 0 -15 12 -15 45 0 33 -4 45 -15
45 -12 0 -15 14 -15 65 0 51 -3 65 -15 65 -11 0 -15 12 -15 50 0 43 -3 50 -20
50 -17 0 -20 7 -20 50 0 38 -4 50 -15 50 -10 0 -15 10 -15 30 0 20 -5 30 -15
30 -10 0 -15 11 -15 35 0 24 -5 35 -15 35 -10 0 -15 10 -15 30 0 23 -4 30 -20
30 -16 0 -20 7 -20 35 0 24 -5 35 -15 35 -10 0 -15 10 -15 30 0 20 -5 30 -15
30 -8 0 -15 9 -15 20 0 11 -7 20 -15 20 -8 0 -15 7 -15 15 0 8 -9 15 -20 15
-11 0 -20 7 -20 15 0 8 -7 15 -15 15 -8 0 -15 7 -15 15 0 8 -7 15 -15 15 -8 0
-15 9 -15 20 0 11 -7 20 -15 20 -8 0 -15 7 -15 15 0 10 -11 15 -35 15 -24 0
-35 5 -35 15 0 10 -10 15 -30 15 -20 0 -30 5 -30 15 0 13 -23 15 -150 15 -127
0 -150 -2 -150 -15z m-490 -580 c0 -8 9 -15 20 -15 16 0 20 -7 20 -35 0 -28
-4 -35 -20 -35 -11 0 -20 -7 -20 -15 0 -8 -7 -15 -15 -15 -8 0 -15 7 -15 15 0
8 7 15 15 15 10 0 15 11 15 35 0 24 -5 35 -15 35 -8 0 -15 7 -15 15 0 8 7 15
15 15 8 0 15 -7 15 -15z m-60 -115 c0 -20 -5 -30 -15 -30 -10 0 -15 10 -15 30
0 20 5 30 15 30 10 0 15 -10 15 -30z m1400 -1025 c0 -8 -7 -15 -15 -15 -8 0
-15 7 -15 15 0 8 7 15 15 15 8 0 15 -7 15 -15z m-100 -780 c0 -8 -7 -15 -15
-15 -8 0 -15 7 -15 15 0 8 7 15 15 15 8 0 15 -7 15 -15z m-130 -750 c0 -8 -7
-15 -15 -15 -8 0 -15 7 -15 15 0 8 7 15 15 15 8 0 15 -7 15 -15z"/>
<path d="M6930 9400 c0 -13 7 -20 20 -20 13 0 20 7 20 20 0 13 -7 20 -20 20
-13 0 -20 -7 -20 -20z"/>
<path d="M7190 9400 c0 -13 7 -20 20 -20 13 0 20 7 20 20 0 13 -7 20 -20 20
-13 0 -20 -7 -20 -20z"/>
<path d="M7260 9335 c0 -8 7 -15 15 -15 8 0 15 7 15 15 0 8 -7 15 -15 15 -8 0
-15 -7 -15 -15z"/>
<path d="M7230 9270 c0 -11 7 -20 15 -20 8 0 15 9 15 20 0 11 -7 20 -15 20 -8
0 -15 -9 -15 -20z"/>
<path d="M7290 9255 c0 -24 5 -35 15 -35 10 0 15 11 15 35 0 24 -5 35 -15 35
-10 0 -15 -11 -15 -35z"/>
<path d="M7190 9205 c0 -8 9 -15 20 -15 11 0 20 7 20 15 0 8 -9 15 -20 15 -11
0 -20 -7 -20 -15z"/>
<path d="M7260 9175 c0 -8 7 -15 15 -15 8 0 15 7 15 15 0 8 -7 15 -15 15 -8 0
-15 -7 -15 -15z"/>
<path d="M7360 9155 c0 -24 5 -35 15 -35 8 0 15 -7 15 -15 0 -8 7 -15 15 -15
8 0 15 7 15 15 0 8 -7 15 -15 15 -10 0 -15 11 -15 35 0 24 -5 35 -15 35 -10 0
-15 -11 -15 -35z"/>
<path d="M7230 9105 c0 -8 7 -15 15 -15 8 0 15 7 15 15 0 8 -7 15 -15 15 -8 0
-15 -7 -15 -15z"/>
<path d="M8950 8995 c0 -24 5 -35 15 -35 10 0 15 11 15 35 0 24 -5 35 -15 35
-10 0 -15 -11 -15 -35z"/>
<path d="M7450 8960 c0 -23 4 -30 20 -30 16 0 20 7 20 30 0 23 -4 30 -20 30
-16 0 -20 -7 -20 -30z"/>
<path d="M7490 8835 c0 -51 3 -65 15 -65 11 0 15 -12 15 -50 0 -38 4 -50 15
-50 12 0 15 -16 15 -80 0 -64 3 -80 15 -80 8 0 15 -9 15 -20 0 -13 7 -20 20
-20 17 0 20 7 20 50 0 43 -3 50 -20 50 -17 0 -20 7 -20 50 0 38 -4 50 -15 50
-11 0 -15 12 -15 50 0 38 -4 50 -15 50 -12 0 -15 14 -15 65 0 51 -3 65 -15 65
-12 0 -15 -14 -15 -65z"/>
<path d="M8890 8845 c0 -8 7 -15 15 -15 8 0 15 7 15 15 0 8 -7 15 -15 15 -8 0
-15 -7 -15 -15z"/>
<path d="M4070 8585 c0 -8 7 -15 15 -15 8 0 15 7 15 15 0 8 -7 15 -15 15 -8 0
-15 -7 -15 -15z"/>
<path d="M7450 8555 c0 -10 11 -15 35 -15 24 0 35 5 35 15 0 10 -11 15 -35 15
-24 0 -35 -5 -35 -15z"/>
<path d="M4040 8440 c0 -20 5 -30 15 -30 10 0 15 10 15 30 0 20 -5 30 -15 30
-10 0 -15 -10 -15 -30z"/>
<path d="M7520 8425 c0 -33 4 -45 15 -45 11 0 15 12 15 45 0 33 -4 45 -15 45
-11 0 -15 -12 -15 -45z"/>
<path d="M7620 8390 c0 -43 -3 -50 -20 -50 -11 0 -20 -7 -20 -15 0 -8 -7 -15
-15 -15 -12 0 -15 -14 -15 -65 0 -51 3 -65 15 -65 12 0 15 14 15 65 l0 65 35
0 35 0 0 65 c0 51 -3 65 -15 65 -11 0 -15 -12 -15 -50z"/>
<path d="M7160 8330 c0 -38 4 -50 15 -50 11 0 15 12 15 50 0 38 -4 50 -15 50
-11 0 -15 -12 -15 -50z"/>
<path d="M7490 8325 c0 -8 7 -15 15 -15 8 0 15 7 15 15 0 8 -7 15 -15 15 -8 0
-15 -7 -15 -15z"/>
<path d="M7230 8295 c0 -8 7 -15 15 -15 11 0 15 -12 15 -50 0 -38 4 -50 15
-50 10 0 15 -10 15 -30 0 -20 5 -30 15 -30 8 0 15 7 15 15 0 8 9 15 20 15 11
0 20 7 20 15 0 8 -9 15 -20 15 -16 0 -20 7 -20 35 0 24 -5 35 -15 35 -10 0
-15 10 -15 30 0 27 -3 30 -30 30 -20 0 -30 -5 -30 -15z"/>
<path d="M7420 8280 c0 -20 -5 -30 -15 -30 -10 0 -15 -11 -15 -35 0 -24 5 -35
15 -35 8 0 15 -7 15 -15 0 -8 7 -15 15 -15 10 0 15 -11 15 -35 0 -28 4 -35 20
-35 11 0 20 -7 20 -15 0 -8 -9 -15 -20 -15 -16 0 -20 -7 -20 -30 0 -20 -5 -30
-15 -30 -10 0 -15 10 -15 30 0 29 -1 30 -50 30 -38 0 -50 -4 -50 -15 0 -8 9
-15 20 -15 16 0 20 -7 20 -35 0 -24 5 -35 15 -35 8 0 15 -7 15 -15 0 -8 7 -15
15 -15 8 0 15 -7 15 -15 0 -8 7 -15 15 -15 11 0 15 -12 15 -50 0 -43 3 -50 20
-50 11 0 20 -7 20 -15 0 -8 7 -15 15 -15 8 0 15 -7 15 -15 0 -8 7 -15 15 -15
10 0 15 -11 15 -35 0 -24 5 -35 15 -35 8 0 15 -7 15 -15 0 -8 9 -15 20 -15 17
0 20 -7 20 -50 0 -38 4 -50 15 -50 10 0 15 -10 15 -30 0 -20 5 -30 15 -30 8 0
15 -9 15 -20 0 -11 7 -20 15 -20 12 0 15 -16 15 -80 0 -73 2 -80 20 -80 11 0
20 -7 20 -15 0 -10 10 -15 30 -15 l30 0 0 -65 c0 -51 3 -65 15 -65 12 0 15
-18 15 -100 0 -82 -3 -100 -15 -100 -10 0 -15 -10 -15 -30 0 -20 5 -30 15 -30
11 0 15 -12 15 -50 0 -38 -4 -50 -15 -50 -13 0 -15 -27 -15 -180 0 -153 -2
-180 -15 -180 -13 0 -15 -21 -15 -130 0 -109 -2 -130 -15 -130 -12 0 -15 -14
-15 -65 0 -58 -2 -65 -20 -65 -18 0 -20 -7 -20 -65 0 -51 -3 -65 -15 -65 -10
0 -15 -10 -15 -30 0 -20 -5 -30 -15 -30 -12 0 -15 -16 -15 -85 0 -69 -3 -85
-15 -85 -8 0 -15 -7 -15 -15 0 -8 -9 -15 -20 -15 -18 0 -20 -7 -20 -80 0 -64
-3 -80 -15 -80 -8 0 -15 -7 -15 -15 0 -8 -7 -15 -15 -15 -8 0 -15 -9 -15 -20
0 -11 -7 -20 -15 -20 -8 0 -15 -7 -15 -15 0 -8 7 -15 15 -15 8 0 15 -7 15 -15
0 -8 -7 -15 -15 -15 -10 0 -15 -11 -15 -35 0 -28 -4 -35 -20 -35 -11 0 -20 -7
-20 -15 0 -8 -7 -15 -15 -15 -8 0 -15 -7 -15 -15 0 -8 -7 -15 -15 -15 -8 0
-15 7 -15 15 0 8 -7 15 -15 15 -8 0 -15 -7 -15 -15 0 -10 -11 -15 -35 -15 -24
0 -35 -5 -35 -15 0 -11 -12 -15 -50 -15 -38 0 -50 4 -50 15 0 8 9 15 20 15 11
0 20 7 20 15 0 8 -9 15 -20 15 -17 0 -20 7 -20 50 l0 50 -130 0 -130 0 0 -100
c0 -82 -3 -100 -15 -100 -8 0 -15 9 -15 20 0 11 -7 20 -15 20 -8 0 -15 7 -15
15 0 8 7 15 15 15 12 0 15 16 15 80 0 64 3 80 15 80 11 0 15 12 15 50 0 49 -1
50 -30 50 l-30 0 0 -65 c0 -51 -3 -65 -15 -65 -13 0 -15 -25 -15 -165 0 -158
-1 -165 -20 -165 -16 0 -20 -7 -20 -30 l0 -30 -65 0 c-51 0 -65 3 -65 15 0 8
-7 15 -15 15 -8 0 -15 7 -15 15 0 10 -10 15 -30 15 -28 0 -30 3 -30 35 0 28
-4 35 -20 35 -11 0 -20 7 -20 15 0 10 -10 15 -30 15 -28 0 -30 3 -30 35 0 24
-5 35 -15 35 -8 0 -15 7 -15 15 0 8 -9 15 -20 15 -16 0 -20 7 -20 30 0 20 -5
30 -15 30 -12 0 -15 -14 -15 -65 0 -51 3 -65 15 -65 11 0 15 -12 15 -45 0 -38
3 -45 20 -45 16 0 20 -7 20 -35 0 -24 5 -35 15 -35 11 0 15 -12 15 -50 0 -38
4 -50 15 -50 10 0 15 -10 15 -30 0 -20 5 -30 15 -30 10 0 15 -11 15 -35 0 -28
4 -35 20 -35 11 0 20 -7 20 -15 0 -8 7 -15 15 -15 10 0 15 -10 15 -30 0 -20 5
-30 15 -30 10 0 15 -11 15 -35 0 -24 5 -35 15 -35 10 0 15 -10 15 -30 0 -23 4
-30 20 -30 13 0 20 -7 20 -20 0 -11 7 -20 15 -20 8 0 15 -7 15 -15 0 -8 7 -15
15 -15 8 0 15 -7 15 -15 0 -8 7 -15 15 -15 8 0 15 -7 15 -15 0 -8 9 -15 20
-15 13 0 20 -7 20 -20 0 -11 7 -20 15 -20 8 0 15 -7 15 -15 0 -8 7 -15 15 -15
8 0 15 -7 15 -15 0 -8 7 -15 15 -15 8 0 15 -7 15 -15 0 -10 11 -15 35 -15 28
0 35 -4 35 -20 0 -16 7 -20 30 -20 20 0 30 -5 30 -15 0 -11 12 -15 50 -15 38
0 50 -4 50 -15 0 -12 19 -15 115 -15 96 0 115 3 115 15 0 11 12 15 50 15 38 0
50 4 50 15 0 8 7 15 15 15 8 0 15 9 15 20 0 16 7 20 30 20 20 0 30 5 30 15 0
8 9 15 20 15 11 0 20 7 20 15 0 8 7 15 15 15 8 0 15 7 15 15 0 10 10 15 30 15
28 0 30 3 30 35 0 28 4 35 20 35 16 0 20 7 20 30 0 20 5 30 15 30 8 0 15 9 15
20 0 11 7 20 15 20 10 0 15 10 15 30 0 20 5 30 15 30 10 0 15 11 15 35 0 28 4
35 20 35 16 0 20 7 20 30 0 20 5 30 15 30 10 0 15 11 15 35 0 24 5 35 15 35
11 0 15 12 15 45 0 38 3 45 20 45 17 0 20 7 20 50 0 38 4 50 15 50 10 0 15 11
15 35 0 24 5 35 15 35 11 0 15 12 15 45 0 33 4 45 15 45 12 0 15 16 15 85 0
78 2 85 20 85 17 0 20 7 20 45 0 33 4 45 15 45 12 0 15 16 15 85 0 69 3 85 15
85 12 0 15 16 15 80 0 64 -3 80 -15 80 -12 0 -15 14 -15 65 0 51 -3 65 -15 65
-12 0 -15 16 -15 80 0 73 -2 80 -20 80 -18 0 -20 7 -20 80 0 64 -3 80 -15 80
-12 0 -15 16 -15 85 0 69 -3 85 -15 85 -12 0 -15 17 -15 95 0 78 -3 95 -15 95
-12 0 -15 16 -15 80 0 73 -2 80 -20 80 -19 0 -20 7 -20 115 0 96 -3 115 -15
115 -12 0 -15 16 -15 85 0 69 -3 85 -15 85 -12 0 -15 17 -15 95 0 88 -1 95
-20 95 -18 0 -20 7 -20 65 0 51 -3 65 -15 65 -12 0 -15 14 -15 65 0 51 -3 65
-15 65 -12 0 -15 18 -15 100 0 82 -3 100 -15 100 -12 0 -15 17 -15 95 0 88 -1
95 -20 95 -19 0 -20 7 -20 100 0 82 -3 100 -15 100 -12 0 -15 16 -15 80 0 64
-3 80 -15 80 -8 0 -15 -7 -15 -15 0 -8 -7 -15 -15 -15 -12 0 -15 -14 -15 -65
0 -58 -2 -65 -20 -65 -16 0 -20 -7 -20 -35 0 -24 -5 -35 -15 -35 -8 0 -15 7
-15 15 0 8 -7 15 -15 15 -12 0 -15 16 -15 85 0 69 -3 85 -15 85 -8 0 -15 -9
-15 -20 0 -13 -7 -20 -20 -20 -17 0 -20 7 -20 50 0 38 -4 50 -15 50 -10 0 -15
-10 -15 -30z m260 -195 c0 -32 -2 -35 -30 -35 -20 0 -30 5 -30 15 0 8 7 15 15
15 8 0 15 9 15 20 0 11 7 20 15 20 10 0 15 -11 15 -35z m0 -310 c0 -8 -7 -15
-15 -15 -8 0 -15 -7 -15 -15 0 -8 -7 -15 -15 -15 -8 0 -15 7 -15 15 0 8 -9 15
-20 15 -11 0 -20 7 -20 15 0 11 12 15 50 15 38 0 50 -4 50 -15z m70 -150 c0
-58 -2 -65 -20 -65 -18 0 -20 7 -20 65 0 58 2 65 20 65 18 0 20 -7 20 -65z
m30 -240 c0 -69 3 -85 15 -85 8 0 15 -7 15 -15 0 -8 -7 -15 -15 -15 -8 0 -15
7 -15 15 0 8 -7 15 -15 15 -12 0 -15 16 -15 85 0 69 3 85 15 85 12 0 15 -16
15 -85z m-390 -2260 c0 -33 -2 -35 -35 -35 -24 0 -35 5 -35 15 0 8 9 15 20 15
13 0 20 7 20 20 0 11 7 20 15 20 10 0 15 -11 15 -35z m-460 -85 c0 -38 -4 -50
-15 -50 -11 0 -15 12 -15 50 0 38 4 50 15 50 11 0 15 -12 15 -50z m360 -15 c0
-32 -2 -35 -30 -35 -28 0 -30 3 -30 35 0 32 2 35 30 35 28 0 30 -3 30 -35z
m-360 -110 c0 -10 -10 -15 -30 -15 -20 0 -30 5 -30 15 0 10 10 15 30 15 20 0
30 -5 30 -15z m170 0 c0 -10 -11 -15 -35 -15 -24 0 -35 5 -35 15 0 10 11 15
35 15 24 0 35 -5 35 -15z m-460 -130 c0 -8 -7 -15 -15 -15 -8 0 -15 7 -15 15
0 8 7 15 15 15 8 0 15 -7 15 -15z"/>
<path d="M8630 7805 c0 -8 7 -15 15 -15 8 0 15 7 15 15 0 8 -7 15 -15 15 -8 0
-15 -7 -15 -15z"/>
<path d="M7750 6850 c0 -20 5 -30 15 -30 10 0 15 10 15 30 0 20 -5 30 -15 30
-10 0 -15 -10 -15 -30z"/>
<path d="M3420 5985 c0 -8 -7 -15 -15 -15 -8 0 -15 -7 -15 -15 0 -8 7 -15 15
-15 11 0 15 -12 15 -50 0 -38 -4 -50 -15 -50 -12 0 -15 -14 -15 -65 0 -51 -3
-65 -15 -65 -8 0 -15 7 -15 15 0 8 -9 15 -20 15 -11 0 -20 -7 -20 -15 0 -8 9
-15 20 -15 17 0 20 -7 20 -50 0 -43 -3 -50 -20 -50 -18 0 -20 -7 -20 -80 0
-64 -3 -80 -15 -80 -12 0 -15 -14 -15 -65 0 -51 -3 -65 -15 -65 -10 0 -15 -11
-15 -35 0 -24 -5 -35 -15 -35 -12 0 -15 -16 -15 -80 0 -73 -2 -80 -20 -80 -16
0 -20 -7 -20 -30 0 -20 -5 -30 -15 -30 -11 0 -15 -12 -15 -50 0 -38 -4 -50
-15 -50 -10 0 -15 -11 -15 -35 0 -24 -5 -35 -15 -35 -10 0 -15 -10 -15 -30 0
-20 5 -30 15 -30 10 0 15 -11 15 -35 0 -24 -5 -35 -15 -35 -8 0 -15 9 -15 20
0 16 -7 20 -35 20 l-35 0 0 -50 c0 -38 -4 -50 -15 -50 -8 0 -15 -7 -15 -15 0
-8 -7 -15 -15 -15 -8 0 -15 -9 -15 -20 0 -13 -7 -20 -20 -20 -16 0 -20 -7 -20
-30 0 -20 -5 -30 -15 -30 -8 0 -15 -7 -15 -15 0 -8 -7 -15 -15 -15 -8 0 -15
-9 -15 -20 0 -16 -7 -20 -35 -20 -24 0 -35 -5 -35 -15 0 -8 -7 -15 -15 -15 -8
0 -15 -7 -15 -15 0 -8 -7 -15 -15 -15 -8 0 -15 -7 -15 -15 0 -10 -11 -15 -35
-15 -28 0 -35 -4 -35 -20 0 -18 -7 -20 -65 -20 -51 0 -65 -3 -65 -15 0 -8 -7
-15 -15 -15 -8 0 -15 7 -15 15 0 12 -14 15 -65 15 -58 0 -65 2 -65 20 0 16 -7
20 -30 20 -20 0 -30 5 -30 15 0 10 -11 15 -35 15 -24 0 -35 5 -35 15 0 8 -7
15 -15 15 -10 0 -15 11 -15 35 0 33 -2 35 -35 35 -24 0 -35 5 -35 15 0 10 -10
15 -30 15 -29 0 -30 1 -30 50 l0 50 -35 0 c-32 0 -35 2 -35 30 0 20 -5 30 -15
30 -8 0 -15 7 -15 15 0 8 -7 15 -15 15 -11 0 -15 12 -15 50 0 38 -4 50 -15 50
-11 0 -15 -12 -15 -50 0 -38 4 -50 15 -50 10 0 15 -10 15 -30 0 -20 5 -30 15
-30 8 0 15 -7 15 -15 0 -8 7 -15 15 -15 10 0 15 -11 15 -35 0 -28 4 -35 20
-35 11 0 20 -7 20 -15 0 -8 7 -15 15 -15 8 0 15 -7 15 -15 0 -8 7 -15 15 -15
10 0 15 -11 15 -35 0 -24 5 -35 15 -35 8 0 15 -7 15 -15 0 -8 9 -15 20 -15 11
0 20 -7 20 -15 0 -8 7 -15 15 -15 8 0 15 -9 15 -20 0 -11 7 -20 15 -20 8 0 15
-7 15 -15 0 -8 7 -15 15 -15 8 0 15 -7 15 -15 0 -8 9 -15 20 -15 11 0 20 -7
20 -15 0 -11 12 -15 45 -15 38 0 45 -3 45 -20 0 -16 7 -20 35 -20 24 0 35 -5
35 -15 0 -11 12 -15 50 -15 38 0 50 -4 50 -15 0 -11 12 -15 45 -15 33 0 45 4
45 15 0 11 12 15 50 15 38 0 50 4 50 15 0 11 12 15 50 15 43 0 50 3 50 20 0
16 7 20 30 20 20 0 30 5 30 15 0 8 9 15 20 15 11 0 20 7 20 15 0 10 10 15 30
15 28 0 30 3 30 35 0 24 5 35 15 35 8 0 15 7 15 15 0 8 9 15 20 15 11 0 20 7
20 15 0 8 7 15 15 15 10 0 15 11 15 35 0 24 5 35 15 35 8 0 15 7 15 15 0 8 7
15 15 15 11 0 15 12 15 50 0 43 3 50 20 50 11 0 20 7 20 15 0 8 7 15 15 15 10
0 15 10 15 30 0 20 5 30 15 30 11 0 15 12 15 50 0 38 4 50 15 50 11 0 15 12
15 50 0 43 3 50 20 50 17 0 20 7 20 50 0 38 4 50 15 50 12 0 15 16 15 80 0 64
3 80 15 80 12 0 15 14 15 65 0 51 3 65 15 65 12 0 15 14 15 65 0 58 2 65 20
65 19 0 20 7 20 95 0 78 3 95 15 95 10 0 15 11 15 35 0 24 -5 35 -15 35 -12 0
-15 14 -15 65 0 58 -2 65 -20 65 -18 0 -20 7 -20 80 0 64 -3 80 -15 80 -8 0
-15 -7 -15 -15z m30 -260 c0 -8 -7 -15 -15 -15 -8 0 -15 7 -15 15 0 8 7 15 15
15 8 0 15 -7 15 -15z m-260 -1040 c0 -8 -7 -15 -15 -15 -8 0 -15 7 -15 15 0 8
7 15 15 15 8 0 15 -7 15 -15z m-320 -290 c0 -8 -7 -15 -15 -15 -8 0 -15 7 -15
15 0 8 7 15 15 15 8 0 15 -7 15 -15z"/>
<path d="M5210 5955 c0 -8 7 -15 15 -15 8 0 15 7 15 15 0 8 -7 15 -15 15 -8 0
-15 -7 -15 -15z"/>
<path d="M5340 5905 c0 -51 3 -65 15 -65 12 0 15 14 15 65 0 51 -3 65 -15 65
-12 0 -15 -14 -15 -65z"/>
<path d="M5410 5855 c0 -33 4 -45 15 -45 11 0 15 12 15 45 0 33 -4 45 -15 45
-11 0 -15 -12 -15 -45z"/>
<path d="M5110 5790 c0 -13 7 -20 20 -20 13 0 20 7 20 20 0 13 -7 20 -20 20
-13 0 -20 -7 -20 -20z"/>
<path d="M5370 5705 c0 -58 2 -65 20 -65 18 0 20 7 20 65 0 58 -2 65 -20 65
-18 0 -20 -7 -20 -65z"/>
<path d="M7520 5740 c0 -20 5 -30 15 -30 10 0 15 10 15 30 0 20 -5 30 -15 30
-10 0 -15 -10 -15 -30z"/>
<path d="M5080 5725 c0 -8 7 -15 15 -15 8 0 15 7 15 15 0 8 -7 15 -15 15 -8 0
-15 -7 -15 -15z"/>
<path d="M7550 5660 c0 -11 7 -20 15 -20 8 0 15 9 15 20 0 11 -7 20 -15 20 -8
0 -15 -9 -15 -20z"/>
<path d="M5340 5545 c0 -51 3 -65 15 -65 12 0 15 14 15 65 0 51 -3 65 -15 65
-12 0 -15 -14 -15 -65z"/>
<path d="M7490 5500 c0 -49 1 -50 30 -50 20 0 30 5 30 15 0 8 -7 15 -15 15
-10 0 -15 11 -15 35 0 24 -5 35 -15 35 -11 0 -15 -12 -15 -50z"/>
<path d="M6900 5495 c0 -8 7 -15 15 -15 8 0 15 7 15 15 0 8 -7 15 -15 15 -8 0
-15 -7 -15 -15z"/>
<path d="M6350 5335 c0 -33 4 -45 15 -45 11 0 15 12 15 45 0 33 -4 45 -15 45
-11 0 -15 -12 -15 -45z"/>
<path d="M7420 5320 c0 -27 -3 -30 -30 -30 -23 0 -30 -4 -30 -20 0 -13 -7 -20
-20 -20 -11 0 -20 -7 -20 -15 0 -8 9 -15 20 -15 11 0 20 7 20 15 0 10 10 15
30 15 23 0 30 4 30 20 0 11 7 20 15 20 10 0 15 10 15 30 0 20 -5 30 -15 30
-10 0 -15 -10 -15 -30z"/>
<path d="M5280 5255 c0 -51 3 -65 15 -65 12 0 15 14 15 65 0 51 -3 65 -15 65
-12 0 -15 -14 -15 -65z"/>
<path d="M5210 5140 c0 -11 7 -20 15 -20 10 0 15 -10 15 -30 0 -23 4 -30 20
-30 16 0 20 7 20 30 0 23 -4 30 -20 30 -13 0 -20 7 -20 20 0 11 -7 20 -15 20
-8 0 -15 -9 -15 -20z"/>
<path d="M5150 5045 c0 -8 7 -15 15 -15 8 0 15 7 15 15 0 8 -7 15 -15 15 -8 0
-15 -7 -15 -15z"/>
<path d="M5180 4880 c0 -38 -4 -50 -15 -50 -8 0 -15 -7 -15 -15 0 -8 7 -15 15
-15 8 0 15 7 15 15 0 8 7 15 15 15 11 0 15 12 15 50 0 38 -4 50 -15 50 -11 0
-15 -12 -15 -50z"/>
<path d="M8660 4685 c0 -8 7 -15 15 -15 8 0 15 7 15 15 0 8 -7 15 -15 15 -8 0
-15 -7 -15 -15z"/>
<path d="M5110 4655 c0 -8 -7 -15 -15 -15 -10 0 -15 -11 -15 -35 0 -24 5 -35
15 -35 10 0 15 11 15 35 0 28 4 35 20 35 11 0 20 7 20 15 0 8 -9 15 -20 15
-11 0 -20 -7 -20 -15z"/>
<path d="M8460 4585 c0 -8 -7 -15 -15 -15 -8 0 -15 -7 -15 -15 0 -10 11 -15
35 -15 32 0 35 2 35 30 0 23 -4 30 -20 30 -11 0 -20 -7 -20 -15z"/>
<path d="M5020 4505 c0 -24 5 -35 15 -35 8 0 15 9 15 20 0 11 7 20 15 20 8 0
15 7 15 15 0 10 -10 15 -30 15 -28 0 -30 -3 -30 -35z"/>
<path d="M8170 4490 c0 -19 -7 -20 -95 -20 -78 0 -95 -3 -95 -15 0 -13 21 -15
130 -15 109 0 130 -2 130 -15 0 -12 14 -15 65 -15 51 0 65 3 65 15 0 8 -9 15
-20 15 -11 0 -20 7 -20 15 0 11 -12 15 -45 15 -38 0 -45 3 -45 20 0 16 -7 20
-35 20 -28 0 -35 -4 -35 -20z"/>
<path d="M4980 4425 c0 -8 9 -15 20 -15 11 0 20 7 20 15 0 8 -9 15 -20 15 -11
0 -20 -7 -20 -15z"/>
<path d="M4850 4345 c0 -28 4 -35 20 -35 16 0 20 -7 20 -30 0 -23 -4 -30 -20
-30 -13 0 -20 -7 -20 -20 0 -13 7 -20 20 -20 13 0 20 7 20 20 0 11 7 20 15 20
10 0 15 10 15 30 0 20 -5 30 -15 30 -10 0 -15 11 -15 35 0 28 -4 35 -20 35
-16 0 -20 -7 -20 -35z"/>
<path d="M4950 4360 c0 -11 7 -20 15 -20 8 0 15 9 15 20 0 11 -7 20 -15 20 -8
0 -15 -9 -15 -20z"/>
<path d="M7840 4345 c0 -24 -5 -35 -15 -35 -8 0 -15 -7 -15 -15 0 -8 7 -15 15
-15 8 0 15 7 15 15 0 8 9 15 20 15 11 0 20 7 20 15 0 10 10 15 30 15 20 0 30
-5 30 -15 0 -8 9 -15 20 -15 16 0 20 7 20 35 l0 35 -70 0 -70 0 0 -35z"/>
<path d="M7880 4215 c0 -51 3 -65 15 -65 10 0 15 10 15 30 0 20 5 30 15 30 10
0 15 11 15 35 0 32 -2 35 -30 35 l-30 0 0 -65z"/>
<path d="M4760 4135 c0 -8 7 -15 15 -15 8 0 15 7 15 15 0 8 -7 15 -15 15 -8 0
-15 -7 -15 -15z"/>
<path d="M7680 4085 c0 -24 5 -35 15 -35 8 0 15 -7 15 -15 0 -13 22 -15 135
-15 113 0 135 2 135 15 0 13 -22 15 -135 15 l-135 0 0 35 c0 24 -5 35 -15 35
-10 0 -15 -11 -15 -35z"/>
<path d="M7750 4100 c0 -18 7 -20 80 -20 73 0 80 2 80 20 0 18 -7 20 -80 20
-73 0 -80 -2 -80 -20z"/>
<path d="M4660 4065 c0 -8 7 -15 15 -15 8 0 15 7 15 15 0 8 -7 15 -15 15 -8 0
-15 -7 -15 -15z"/>
<path d="M7580 4035 c0 -10 11 -15 35 -15 24 0 35 5 35 15 0 10 -11 15 -35 15
-24 0 -35 -5 -35 -15z"/>
<path d="M4330 4005 c0 -10 11 -15 35 -15 24 0 35 5 35 15 0 10 -11 15 -35 15
-24 0 -35 -5 -35 -15z"/>
<path d="M7471 2899 c-124 -24 -249 -119 -299 -227 -22 -47 -26 -71 -26 -143
0 -73 4 -93 27 -141 33 -67 100 -131 170 -163 29 -13 116 -37 195 -54 194 -41
242 -74 242 -166 0 -54 -28 -92 -88 -122 -46 -23 -61 -25 -130 -21 -82 5 -127
22 -175 67 -30 27 -67 90 -67 113 -1 36 -15 40 -81 23 -158 -40 -142 -31 -135
-78 22 -136 143 -261 300 -309 100 -31 255 -30 345 1 114 40 192 108 240 211
21 45 25 70 25 135 0 98 -28 167 -95 234 -63 63 -145 98 -309 131 -160 32
-197 50 -224 103 -53 108 58 217 210 204 85 -6 138 -41 175 -112 l25 -51 102
31 c117 34 115 30 66 132 -74 154 -289 242 -493 202z"/>
<path d="M9528 2900 c-232 -39 -413 -194 -484 -414 -23 -69 -27 -100 -27 -201
-1 -203 46 -329 173 -456 97 -98 187 -144 325 -167 170 -28 312 7 414 103 l50
46 7 -72 7 -72 60 7 c33 3 75 6 93 6 l34 0 0 310 0 310 -300 0 -300 0 0 -100
0 -100 190 0 c124 0 190 -4 190 -10 0 -25 -31 -81 -66 -120 -101 -111 -285
-137 -440 -60 -75 37 -126 91 -167 178 -25 54 -31 80 -35 162 -5 114 16 204
68 282 86 130 267 188 430 139 62 -19 82 -31 130 -79 33 -33 62 -73 69 -95 7
-21 18 -36 25 -34 6 2 55 19 108 38 65 22 98 39 98 49 0 34 -60 129 -120 191
-129 131 -333 192 -532 159z"/>
<path d="M165 2843 c8 -27 82 -293 165 -593 83 -300 153 -553 156 -562 5 -16
20 -18 127 -18 l122 0 134 423 c74 232 138 426 142 431 4 4 36 -84 72 -195 36
-112 98 -306 138 -431 l73 -228 121 0 120 0 164 598 c90 328 166 603 169 610
3 9 -24 12 -116 12 l-120 0 -9 -37 c-119 -461 -208 -793 -212 -793 -4 0 -39
102 -79 228 -41 125 -101 311 -134 415 l-60 187 -122 0 -121 0 -53 -168 c-182
-573 -215 -667 -223 -647 -5 11 -54 191 -109 400 -56 209 -103 388 -106 398
-5 15 -20 17 -129 17 l-124 0 14 -47z"/>
<path d="M2200 2280 l0 -610 380 0 380 0 0 110 0 110 -262 2 -263 3 -3 143 -3
142 241 0 240 0 0 105 0 105 -240 0 -241 0 3 138 3 137 263 3 262 2 0 110 0
110 -380 0 -380 0 0 -610z"/>
<path d="M3370 2281 l0 -611 253 0 c348 0 421 18 515 126 57 64 75 125 70 233
-3 72 -9 95 -31 133 -32 55 -84 102 -131 119 -36 13 -48 29 -22 29 24 0 104
79 127 128 33 66 33 185 0 259 -30 68 -101 134 -177 164 -56 22 -74 23 -331
27 l-273 4 0 -611z m505 386 c53 -30 77 -77 72 -140 -5 -55 -29 -93 -78 -122
-28 -16 -56 -21 -151 -24 l-118 -3 0 156 0 156 118 0 c103 0 122 -3 157 -23z
m22 -498 c109 -53 112 -219 5 -278 -38 -20 -62 -24 -173 -29 l-129 -5 0 167 0
166 127 0 c108 0 133 -3 170 -21z"/>
<path d="M4590 2281 l0 -611 238 0 c333 0 431 19 559 109 156 110 233 275 233
501 0 301 -150 512 -415 586 -47 14 -119 18 -337 21 l-278 5 0 -611z m582 362
c70 -32 141 -103 174 -176 27 -58 29 -70 29 -187 0 -117 -2 -129 -29 -187 -33
-73 -103 -143 -173 -175 -41 -19 -71 -23 -200 -26 l-153 -4 0 392 0 392 153
-4 c130 -3 159 -6 199 -25z"/>
<path d="M6010 2280 l0 -610 380 0 380 0 0 110 0 110 -262 2 -263 3 -3 143 -3
142 241 0 240 0 0 105 0 105 -240 0 -241 0 3 138 3 137 263 3 262 2 0 110 0
110 -380 0 -380 0 0 -610z"/>
<path d="M8380 2280 l0 -610 120 0 120 0 0 610 0 610 -120 0 -120 0 0 -610z"/>
<path d="M10590 2280 l0 -610 115 0 115 0 0 430 c0 237 3 430 8 430 4 -1 129
-193 278 -428 l270 -427 122 -3 122 -3 0 611 0 610 -115 0 -115 0 -2 -401 -3
-401 -250 401 -250 401 -147 0 -148 0 0 -610z"/>
<path d="M5626 1069 c-122 -20 -249 -116 -305 -231 -112 -231 -21 -519 195
-620 280 -131 589 31 636 333 49 321 -206 572 -526 518z m187 -169 c63 -24
118 -77 149 -145 32 -71 31 -189 -1 -263 -41 -91 -148 -162 -245 -162 -101 0
-205 69 -247 162 -32 74 -32 192 0 264 59 134 206 196 344 144z"/>
<path d="M8017 1070 c-88 -23 -160 -78 -199 -154 -34 -64 -31 -167 5 -229 49
-83 86 -102 297 -152 78 -18 120 -56 120 -109 0 -70 -62 -111 -159 -104 -74 5
-124 40 -153 107 -12 25 -21 47 -22 48 -1 1 -33 -6 -71 -16 -70 -18 -70 -18
-67 -50 6 -78 91 -178 178 -211 158 -59 333 -20 414 91 69 96 63 220 -15 307
-52 58 -105 83 -225 107 -131 26 -160 48 -160 117 0 66 54 108 138 108 60 0
109 -30 134 -80 10 -19 21 -35 25 -35 5 0 36 9 71 19 69 21 72 28 43 91 -24
52 -74 99 -132 124 -53 24 -167 34 -222 21z"/>
<path d="M3580 625 l0 -435 80 0 80 0 2 163 3 162 130 5 c148 7 186 20 247 88
46 51 63 100 62 187 0 60 -4 79 -30 125 -37 66 -101 113 -174 129 -28 6 -130
11 -225 11 l-175 0 0 -435z m377 272 c58 -31 81 -114 48 -176 -22 -44 -70 -61
-169 -61 l-86 0 0 131 0 131 88 -4 c55 -3 99 -11 119 -21z"/>
<path d="M4440 626 l0 -436 85 0 85 0 0 170 0 170 43 0 42 0 85 -170 85 -170
93 0 94 0 -92 176 c-50 97 -90 177 -88 179 2 1 22 12 44 23 152 77 180 297 52
419 -63 61 -91 67 -320 71 l-208 4 0 -436z m345 284 c81 -18 119 -104 80 -180
-24 -46 -62 -60 -165 -60 l-90 0 0 125 0 125 68 0 c37 0 85 -5 107 -10z"/>
<path d="M6842 733 c3 -321 4 -329 27 -381 91 -202 412 -244 562 -74 66 76 69
95 69 459 l0 323 -80 0 -80 0 0 -300 c0 -322 -3 -343 -51 -386 -53 -47 -146
-54 -212 -16 -16 9 -39 35 -50 57 -21 38 -22 55 -25 343 l-4 302 -79 0 -80 0
3 -327z"/>
<path d="M6419 377 c-40 -27 -56 -72 -43 -119 11 -38 64 -78 104 -78 40 0 93
40 104 78 19 67 -35 142 -104 142 -15 0 -42 -10 -61 -23z"/>
</g>
</svg>
